<?xml version="1.0" encoding="UTF-8" standalone="no"?>
<!DOCTYPE svg PUBLIC "-//W3C//DTD SVG 1.1//EN" "http://www.w3.org/Graphics/SVG/1.1/DTD/svg11.dtd">
<svg width="6%" height="6%" viewBox="0 0 100 100" version="1.1" xmlns="http://www.w3.org/2000/svg" xmlns:xlink="http://www.w3.org/1999/xlink" xml:space="preserve" xmlns:serif="http://www.serif.com/" style="fill-rule:evenodd;clip-rule:evenodd;stroke-linejoin:round;stroke-miterlimit:2;">
    <g transform="matrix(0.615879,-0.609202,0.609202,0.615879,-100.848,9.52704)">
        <path d="M40.436,184.402C38.578,183.758 37.033,182.644 36.081,181.26C34.458,178.901 34.52,180.009 34.598,155.122L34.668,132.374L35.28,131.132C36.13,129.405 37.756,127.818 39.522,126.99L41.018,126.288L141.295,126.288L142.788,127.022C144.531,127.878 146.265,129.651 147.072,131.401C147.568,132.479 147.653,133.21 147.732,137.07L147.822,141.502L150.19,141.502C151.579,141.502 152.91,141.649 153.413,141.859C154.701,142.398 155.915,143.93 156.109,145.261C156.199,145.886 156.237,150.861 156.193,156.319C156.102,167.422 156.094,167.472 154.213,168.754C153.364,169.333 152.904,169.427 150.532,169.505L147.821,169.595L147.733,174.003C147.65,178.195 147.609,178.485 146.912,179.904C146.057,181.645 144.284,183.38 142.532,184.189L141.295,184.761L91.553,184.82C44.23,184.876 41.745,184.856 40.436,184.402ZM51.06,164.677C49.824,164.916 49.817,164.93 50.846,165.094C51.894,165.261 89.812,168.455 104.541,169.616C108.691,169.944 112.088,170.152 112.09,170.079C112.092,170.005 108.767,166.344 104.699,161.942C100.553,157.454 97.432,153.819 97.594,153.667C97.753,153.518 103.802,152.246 111.035,150.84C128.581,147.431 132.086,146.724 131.984,146.615C131.895,146.52 123.946,145.822 89.874,142.917L69.858,141.21L77.397,149.437C81.544,153.962 84.884,157.713 84.821,157.772C84.696,157.889 59.204,163.103 51.06,164.677Z" style="fill:rgb(0, 255, 255);"/>
    </g>
</svg>
