<?xml version="1.0" encoding="UTF-8" standalone="no"?><!DOCTYPE svg PUBLIC "-//W3C//DTD SVG 1.1//EN" "http://www.w3.org/Graphics/SVG/1.1/DTD/svg11.dtd"><svg width="6%" height="6%" viewBox="0 0 100 100" version="1.1" xmlns="http://www.w3.org/2000/svg" xmlns:xlink="http://www.w3.org/1999/xlink" xml:space="preserve" xmlns:serif="http://www.serif.com/" style="fill-rule:evenodd;clip-rule:evenodd;stroke-linejoin:round;stroke-miterlimit:2;"><path d="M90.514,83.514c-3.338,1.932 -8.476,3.154 -13.362,3.179c-2.495,0.011 -10.232,-1.052 -17.814,-2.45c-7.176,-1.323 -11.459,-1.711 -15.418,-1.394c-7.802,0.625 -15.923,3.435 -22.969,7.95c-1.878,1.203 -3.39,1.992 -3.575,1.868c-1.169,-0.787 1.385,-3.674 6.405,-7.244c7.499,-5.331 16.788,-8.534 25.188,-8.681c2.001,-0.034 8.804,0.539 15.119,1.275c11.781,1.372 15.094,1.427 19.18,0.317c1.848,-0.503 2.471,-0.855 4.781,-2.702c2.402,-1.92 2.742,-2.305 3.534,-4.004c1.302,-2.795 1.427,-6.23 0.33,-9.064c-1.611,-4.162 -4.202,-6.129 -8.559,-6.495c-3.855,-0.324 -9.105,1.483 -11.742,4.042c-1.574,1.528 -3.356,4.651 -3.442,6.034c-0.063,1.012 -0.46,1.378 -1.296,1.191c-0.517,-0.114 -0.639,-0.379 -0.7,-1.52c-0.25,-4.732 2.958,-10.036 7.715,-12.756c8.921,-5.102 17.821,-3.637 22.852,3.763c6.153,9.049 3.327,21.161 -6.227,26.691Z" style="fill:rgb(0, 255, 255);"/><path d="M79.204,45.68c-3.474,1.945 -8.691,4.331 -18.768,8.582c-16.188,6.827 -23.238,10.569 -29.753,15.791c-7.766,6.222 -17.06,16.042 -25.191,26.617c-2.016,2.622 -2.735,3.381 -3.151,3.327c-1.029,-0.129 -0.699,-1.316 1.336,-4.803c4.066,-6.97 10.82,-16.215 16.494,-22.58c10.151,-11.385 16.684,-15.682 40.582,-26.692c17.635,-8.125 21.242,-10.683 24.658,-17.484c2.844,-5.664 2.049,-11.631 -2.223,-16.683c-2.421,-2.862 -4.882,-4.234 -8.74,-4.876c-8.825,-1.464 -17.166,5.05 -17.738,13.852c-0.143,2.214 0.78,7.196 1.658,8.947c0.562,1.121 0.441,1.909 -0.331,2.15c-0.506,0.157 -0.738,-0.071 -1.877,-1.848c-2.766,-4.32 -3.805,-8.738 -3.149,-13.403c0.704,-5.014 3.032,-8.983 7.266,-12.392c2.959,-2.381 4.716,-3.22 8.545,-4.075c5.496,-1.227 11.454,-0.165 16.148,2.879c2.772,1.798 6.236,5.838 7.878,9.188c3.64,7.427 2.701,16.148 -2.56,23.769c-2.152,3.119 -7.217,7.566 -11.084,9.734Z" style="fill:rgb(0, 255, 255);"/><path d="M0.376,82.321c-0.756,-0.462 -0.49,-1.029 1.896,-4.034c5.26,-6.625 9.073,-13.4 10.458,-18.585c0.362,-1.356 1.114,-5.844 1.671,-9.975c0.557,-4.129 1.381,-9.091 1.832,-11.025c2.48,-10.647 8.209,-17.363 15.991,-18.744c6.249,-1.11 12.214,1.2 16.102,6.235c1.609,2.085 1.869,2.607 2.37,4.751c1.113,4.775 -0.271,10.589 -3.256,13.674c-1.565,1.618 -4.264,3.056 -6.616,3.528c-2.333,0.467 -5.669,0.123 -7.45,-0.768c-1.318,-0.659 -1.445,-0.792 -1.371,-1.45c0.073,-0.657 0.282,-0.71 2.264,-0.568c2.882,0.205 5.028,-0.33 7.224,-1.804c2.186,-1.467 3.153,-3.108 3.612,-6.123c0.793,-5.211 -2.303,-9.227 -7.819,-10.143c-3.416,-0.566 -5.436,-0.033 -8.134,2.147c-4.196,3.392 -5.778,7.56 -8.779,23.133c-1.507,7.817 -3.513,12.755 -7.263,17.875c-2.706,3.693 -5.892,7.044 -9.288,9.772c-2.471,1.983 -3.056,2.34 -3.444,2.104Z" style="fill:rgb(0, 255, 255);"/></svg>