<?xml version="1.0" encoding="UTF-8" standalone="no"?><!DOCTYPE svg PUBLIC "-//W3C//DTD SVG 1.1//EN" "http://www.w3.org/Graphics/SVG/1.1/DTD/svg11.dtd"><svg width="6%" height="6%" viewBox="0 0 100 100" version="1.1" xmlns="http://www.w3.org/2000/svg" xmlns:xlink="http://www.w3.org/1999/xlink" xml:space="preserve" xmlns:serif="http://www.serif.com/" style="fill-rule:evenodd;clip-rule:evenodd;stroke-linejoin:round;stroke-miterlimit:2;"><path id="path1" d="M40.849,99.72c-12.171,-1.913 -21.253,-7.514 -27.268,-16.816c-9.281,-14.355 -8.323,-33.511 2.385,-47.744c3.317,-4.406 10.411,-11.709 13.892,-14.296c6.478,-4.817 7.577,-9.555 3.788,-16.332c-2.515,-4.498 -1.342,-5.364 5.2,-3.837c5.907,1.376 10.398,3.869 14.218,7.891c5.155,5.428 7.212,10.982 7.223,19.507c0.012,8.855 2.614,14.405 8.075,17.229c1.585,0.819 1.573,0.865 0.466,-1.639c-1.409,-3.182 -1.585,-7.174 -0.5,-11.324c1.101,-4.205 1.93,-5.627 3.286,-5.627c1.373,-0 8.224,5.23 11.301,8.626c7.235,7.985 10.761,18.123 9.663,27.784c-2.108,18.552 -13.876,31.847 -31.835,35.965c-3.52,0.806 -16.177,1.197 -19.894,0.613Zm3.758,-5.11c2.19,0.343 9.651,0.113 11.724,-0.363c10.584,-2.425 17.519,-10.261 18.762,-21.195c0.646,-5.693 -1.431,-11.669 -5.695,-16.373c-1.813,-2.003 -5.852,-5.085 -6.659,-5.085c-0.799,-0 -1.289,0.838 -1.937,3.316c-0.64,2.446 -0.537,4.799 0.293,6.675c0.653,1.474 0.66,1.449 -0.273,0.965c-3.219,-1.664 -4.751,-4.935 -4.758,-10.154c-0.009,-5.024 -1.221,-8.298 -4.258,-11.496c-2.251,-2.37 -4.899,-3.839 -8.379,-4.651c-3.856,-0.899 -4.548,-0.39 -3.066,2.263c2.233,3.993 1.587,6.785 -2.232,9.623c-2.05,1.526 -6.232,5.829 -8.187,8.427c-6.311,8.388 -6.876,19.677 -1.405,28.136c3.545,5.483 8.896,8.784 16.07,9.912Z" style="fill:rgb(0, 255, 255);"/></svg>