<?xml version="1.0" encoding="UTF-8" standalone="no"?>
<!DOCTYPE svg PUBLIC "-//W3C//DTD SVG 1.1//EN" "http://www.w3.org/Graphics/SVG/1.1/DTD/svg11.dtd">
<svg width="6%" height="6%" viewBox="0 0 100 100" version="1.1" xmlns="http://www.w3.org/2000/svg" xmlns:xlink="http://www.w3.org/1999/xlink" xml:space="preserve" xmlns:serif="http://www.serif.com/" style="fill-rule:evenodd;clip-rule:evenodd;stroke-linejoin:round;stroke-miterlimit:2;">
    <g transform="matrix(1.21171,0,0,1.21171,-57.6534,-104.786)">
        <path d="M73.869,168.509C72.818,167.868 72.202,166.719 72.204,165.403C72.205,164.186 81.085,132.242 81.54,131.821C81.716,131.658 85.302,129.471 89.51,126.961C97.599,122.134 105.758,117.776 106.863,117.691C108.443,117.569 109.027,117.735 109.917,118.558C110.807,119.382 110.961,119.83 113.617,129.286C115.141,134.713 116.388,139.535 116.387,140.002C116.385,141.777 114.516,143.624 112.72,143.626C111.521,143.627 109.912,142.681 109.399,141.673C109.168,141.22 108.189,137.992 107.222,134.499C106.255,131.007 105.392,128.067 105.304,127.967C105.215,127.866 102.702,129.639 99.719,131.906C96.736,134.173 93.697,136.296 92.966,136.623L91.637,137.218L85.985,150.675C78.666,168.102 78.791,167.832 77.714,168.488C76.596,169.17 74.968,169.179 73.869,168.509Z" style="fill:rgb(0, 255, 255);"/>
    </g>
    <g transform="matrix(1.21171,0,0,1.21171,-57.6534,-104.786)">
        <path d="M81.198,122.593C81.198,118.591 81.122,115.317 81.029,115.317C80.937,115.317 78.926,116.329 76.561,117.566C71.498,120.214 70.659,120.372 69.181,118.955C68.688,118.482 66.594,115.773 64.528,112.936L60.771,107.776L60.897,106.469C61.065,104.716 62.157,103.671 63.806,103.685C64.422,103.69 65.193,103.842 65.518,104.023C65.843,104.203 67.376,106.074 68.923,108.181C70.471,110.287 71.835,112.116 71.955,112.246C72.163,112.472 75.16,110.534 82.435,105.469C84.366,104.124 86.114,103.113 86.801,102.944C87.43,102.788 89.85,102.401 92.179,102.083C96.972,101.428 105.233,100.073 105.834,99.842C106.054,99.757 107.281,97.103 108.562,93.943C111.168,87.512 111.869,86.477 113.619,86.477C115.491,86.477 116.917,87.823 116.917,89.59C116.917,90.668 111.55,103.673 110.793,104.431C110.44,104.784 107.309,106.224 103.556,107.761L96.941,110.468L96.809,115.715L96.676,120.961L89.136,125.405C84.989,127.848 81.506,129.853 81.397,129.858C81.288,129.864 81.198,126.595 81.198,122.593Z" style="fill:rgb(0, 255, 255);"/>
    </g>
    <g transform="matrix(1.21171,0,0,1.21171,-57.6534,-104.786)">
        <path d="M86.887,100.672C85.275,99.919 83.814,98.354 83.184,96.704C82.628,95.248 82.735,92.617 83.403,91.326C85.71,86.864 91.526,86.036 94.833,89.697C96.141,91.144 96.625,92.384 96.635,94.311C96.651,97.287 94.797,99.964 92.08,100.89C90.349,101.48 88.447,101.4 86.887,100.672Z" style="fill:rgb(0, 255, 255);"/>
    </g>
</svg>
