<?xml version="1.0" encoding="UTF-8" standalone="no"?><!DOCTYPE svg PUBLIC "-//W3C//DTD SVG 1.1//EN" "http://www.w3.org/Graphics/SVG/1.1/DTD/svg11.dtd"><svg width="6%" height="6%" viewBox="0 0 100 100" version="1.1" xmlns="http://www.w3.org/2000/svg" xmlns:xlink="http://www.w3.org/1999/xlink" xml:space="preserve" xmlns:serif="http://www.serif.com/" style="fill-rule:evenodd;clip-rule:evenodd;stroke-linejoin:round;stroke-miterlimit:2;"><path id="path217" d="M36.893,98.532c-8.608,-2.256 -15.076,-6.109 -22.183,-13.215c-10.272,-10.272 -14.71,-20.924 -14.71,-35.304c0,-14.383 4.451,-25.086 14.689,-35.325c10.238,-10.238 20.941,-14.688 35.324,-14.688c14.394,0 25.105,4.456 35.304,14.688c10.277,10.312 14.709,20.957 14.709,35.325c0,14.382 -4.451,25.086 -14.689,35.324c-7.196,7.197 -13.585,10.95 -22.534,13.239c-7.49,1.915 -18.499,1.897 -25.91,-0.044Zm15.622,-17.183c5.281,-2.207 6.628,-8.733 2.707,-13.121c-1.899,-2.126 -2.584,-2.402 -5.944,-2.402c-3.361,-0 -4.046,0.277 -5.945,2.402c-3.86,4.32 -2.59,10.855 2.545,13.09c2.932,1.275 3.65,1.279 6.637,0.031Zm3.566,-19.537c0.303,-0.017 0.551,-1.316 0.551,-2.885c0,-2.569 0.543,-3.393 5.446,-8.274c6.498,-6.47 7.695,-9.48 6.39,-16.058c-1.03,-5.183 -3.923,-9.322 -8.49,-12.146c-3.176,-1.963 -4.251,-2.223 -9.172,-2.222c-4.441,0.002 -6.281,0.364 -9.056,1.78c-3.111,1.588 -10.124,7.726 -10.124,8.86c0,0.243 1.817,2.236 4.037,4.428l4.038,3.989l2.398,-2.27c4.504,-4.263 7.217,-4.888 10.389,-2.393c3.37,2.65 2.676,5.083 -2.839,9.955c-5.44,4.806 -7.726,8.842 -7.726,13.637c-0,1.828 0.138,3.46 0.306,3.628c0.232,0.233 9.555,0.214 13.852,-0.029Z" style="fill:rgb(0, 255, 255);"/></svg>