<?xml version="1.0" encoding="UTF-8" standalone="no"?>
<!DOCTYPE svg PUBLIC "-//W3C//DTD SVG 1.1//EN" "http://www.w3.org/Graphics/SVG/1.1/DTD/svg11.dtd">
<svg width="6%" height="6%" viewBox="0 0 100 100" version="1.1" xmlns="http://www.w3.org/2000/svg" xmlns:xlink="http://www.w3.org/1999/xlink" xml:space="preserve" xmlns:serif="http://www.serif.com/" style="fill-rule:evenodd;clip-rule:evenodd;stroke-linejoin:round;stroke-miterlimit:2;">
    <g transform="matrix(1.05427,0.272808,-0.272808,1.05427,-5.34143,-185.036)">
        <path d="M89.933,246.18C87.865,245.514 86.587,244.281 85.969,242.353C85.471,240.798 85.787,239.699 87.925,235.55C90.113,231.304 91.511,227.544 92.332,223.703C93.03,220.432 93.302,213.624 92.867,210.3C92.513,207.593 91.429,203.054 90.893,202.031L90.535,201.346L90.198,202.383C89.671,204.007 89.003,204.756 87.509,205.399C81.361,208.043 73.455,203.684 69.582,195.514C67.735,191.618 67.044,187.559 67.696,184.433C68.439,180.867 71.083,177.274 74.841,174.721L76.522,173.58L75.754,173.19C74.442,172.523 73.341,171.279 72.599,169.626C72.001,168.294 71.903,167.757 71.989,166.283C72.122,163.986 72.932,162.347 74.916,160.364C81.042,154.237 87.841,154.148 93.87,160.116C95.765,161.992 97.98,164.932 99.02,166.954C99.436,167.762 99.489,167.783 100.439,167.521C101.718,167.168 103.56,167.354 104.848,167.966C106.792,168.89 108.191,171.701 108.191,174.681L108.191,176.14L107.265,175.242C106.756,174.749 106.019,173.883 105.628,173.318C105.236,172.754 104.467,172.063 103.918,171.783C100.17,169.87 96.287,173.669 98.119,177.454C98.846,178.956 102.584,182.946 104.724,184.504C106.119,185.52 106.334,185.786 106.22,186.353C105.889,188.004 105.517,191.72 105.467,193.862L105.413,196.209L113.474,200.943C121.506,205.66 122.988,206.704 123.514,208.019C123.667,208.4 124.751,213.804 125.924,220.028C127.394,227.827 128.004,231.628 127.885,232.258C127.596,233.803 126.376,235.427 125.007,236.089C122.485,237.31 119.178,236.328 117.994,234.006C117.672,233.375 116.748,229.19 115.614,223.227C114.594,217.865 113.668,213.443 113.555,213.399C113.443,213.355 111.148,212.025 108.456,210.444C105.764,208.864 103.53,207.6 103.493,207.636C103.456,207.671 103.567,209.494 103.74,211.686C104.264,218.342 103.41,224.996 101.15,231.863C99.92,235.601 96.92,242.049 95.522,243.961C94.247,245.703 91.654,246.733 89.933,246.18ZM87.585,170.511C88.497,169.599 88.612,169.34 88.611,168.196C88.608,164.328 83.998,163.027 81.986,166.327C80.53,168.714 82.309,171.535 85.27,171.537C86.413,171.538 86.672,171.423 87.585,170.511ZM80.859,171.046C79.257,169.332 78.906,167.069 79.919,164.977C81.156,162.42 84.636,161.448 87.189,162.944C87.815,163.311 88.43,163.795 88.555,164.019C88.751,164.37 88.828,164.374 89.095,164.053C89.52,163.541 88.573,162.157 87.075,161.105C85.513,160.007 82.867,159.821 81.084,160.684C78.068,162.144 76.644,165.898 78.02,168.76C78.633,170.035 78.943,170.412 80.133,171.329C81.256,172.194 81.751,172.001 80.859,171.046Z" style="fill:rgb(0, 255, 255);"/>
    </g>
    <g transform="matrix(1.05427,0.272808,-0.272808,1.05427,-5.34143,-185.036)">
        <path d="M138.09,231.383C138.091,231.283 136.415,222.172 134.365,211.136C132.315,200.101 130.678,191.039 130.726,190.999C130.774,190.959 131.291,190.853 131.875,190.764L132.936,190.602L136.683,210.769C138.743,221.862 140.349,231.011 140.251,231.101C139.986,231.346 138.089,231.594 138.09,231.383Z" style="fill:rgb(0, 255, 255);"/>
    </g>
    <g transform="matrix(1.05427,0.272808,-0.272808,1.05427,-5.34143,-185.036)">
        <path d="M121.817,190.403C116.429,189.914 110.274,187.539 105.832,184.234C103.436,182.451 99.475,178.351 98.825,176.981C97.535,174.263 100.129,171.374 103.006,172.323C103.645,172.534 104.362,173.162 105.278,174.313C109.474,179.587 116.057,183.022 123.101,183.615C124.29,183.715 126.616,183.643 128.542,183.447C132.406,183.053 133,183.195 134.068,184.767C135.275,186.546 134.308,189.085 132.158,189.782C130.267,190.396 125.132,190.704 121.817,190.403Z" style="fill:rgb(0, 255, 255);"/>
    </g>
    <g transform="matrix(1.05427,0.272808,-0.272808,1.05427,-5.34143,-185.036)">
        <path d="M128.973,182.055C128.758,181.366 127.506,174.272 127.506,173.74C127.506,173.295 127.704,173.159 128.498,173.063C129.044,172.997 129.55,173.033 129.623,173.143C129.697,173.253 130.105,175.268 130.531,177.621C131.193,181.272 131.251,181.933 130.927,182.138C130.369,182.491 129.093,182.437 128.973,182.055Z" style="fill:rgb(0, 255, 255);"/>
    </g>
    <g transform="matrix(1.05427,0.272808,-0.272808,1.05427,-5.34143,-185.036)">
        <path d="M108.002,166.407C105.254,165.51 103.095,163.597 101.885,160.987C101.311,159.749 101.195,159.121 101.198,157.251C101.202,154.182 101.91,152.419 103.958,150.371C108.762,145.568 116.608,147.011 119.526,153.235C120.125,154.514 120.23,155.092 120.23,157.124C120.23,159.282 120.147,159.678 119.37,161.257C117.741,164.566 114.742,166.537 111.107,166.689C109.908,166.739 108.674,166.627 108.002,166.407Z" style="fill:rgb(0, 255, 255);"/>
    </g>
</svg>
