<?xml version="1.0" encoding="UTF-8" standalone="no"?>
<!DOCTYPE svg PUBLIC "-//W3C//DTD SVG 1.1//EN" "http://www.w3.org/Graphics/SVG/1.1/DTD/svg11.dtd">
<svg width="6%" height="6%" viewBox="0 0 100 100" version="1.1" xmlns="http://www.w3.org/2000/svg" xmlns:xlink="http://www.w3.org/1999/xlink" xml:space="preserve" xmlns:serif="http://www.serif.com/" style="fill-rule:evenodd;clip-rule:evenodd;stroke-linejoin:round;stroke-miterlimit:2;">
    <g transform="matrix(0.928832,0,0,1.00803,-55.6595,-97.2857)">
        <path d="M112.294,195.085C111.785,194.749 109.939,193.546 108.193,192.414C100.004,187.102 89.445,178.421 81.331,170.329C73.947,162.965 68.355,154.852 64.735,146.252C59.178,133.047 58.41,120.922 62.561,111.936C66.936,102.468 76.85,96.51 88.231,96.51C94.433,96.51 100.565,98.369 106.652,102.095C108.242,103.068 110.151,104.515 112.842,106.786L113.787,107.584L115.753,105.872C122.61,99.899 131.169,96.51 139.4,96.51C142.775,96.51 144.38,96.754 148.219,97.851C154.312,99.592 159.753,103.538 163.152,108.681C169.236,117.888 169.052,131.606 162.643,146.649C158.836,155.581 152.137,164.866 144.012,172.471C137.501,178.565 132.885,182.522 127.248,186.842C122.615,190.392 114.429,195.74 113.669,195.713C113.422,195.704 112.803,195.422 112.294,195.085ZM112.854,187.832C113.168,188.04 113.55,188.214 113.702,188.219C114.171,188.236 119.22,184.937 122.078,182.747C125.555,180.083 128.402,177.642 132.418,173.883C137.43,169.192 141.562,163.465 143.91,157.955C147.864,148.677 147.977,140.215 144.224,134.536C142.128,131.364 138.771,128.93 135.013,127.856C132.645,127.179 131.655,127.029 129.573,127.029C124.496,127.029 119.217,129.119 114.987,132.803L113.775,133.859L113.192,133.367C111.532,131.966 110.355,131.074 109.374,130.474C105.619,128.176 101.837,127.029 98.011,127.029C90.991,127.029 84.876,130.704 82.178,136.544C79.617,142.087 80.091,149.566 83.519,157.711C85.751,163.015 89.201,168.02 93.755,172.562C98.76,177.553 105.273,182.908 110.324,186.184C111.401,186.883 112.54,187.624 112.854,187.832Z" style="fill:rgb(0, 255, 255);"/>
    </g>
</svg>
