<?xml version="1.0" encoding="UTF-8" standalone="no"?>
<!DOCTYPE svg PUBLIC "-//W3C//DTD SVG 1.1//EN" "http://www.w3.org/Graphics/SVG/1.1/DTD/svg11.dtd">
<svg width="6%" height="6%" viewBox="0 0 100 100" version="1.1" xmlns="http://www.w3.org/2000/svg" xmlns:xlink="http://www.w3.org/1999/xlink" xml:space="preserve" xmlns:serif="http://www.serif.com/" style="fill-rule:evenodd;clip-rule:evenodd;stroke-linejoin:round;stroke-miterlimit:2;">
    <rect x="0" y="0" width="100" height="100" style="fill:rgb(16,29,43);"/>
    <g transform="matrix(1.12821,0,0,1.02844,-4.80079,2.19812)">
        <path d="M21.634,22.907L21.634,70.053C21.634,73.362 19.185,76.049 16.168,76.049C13.152,76.049 10.703,73.362 10.703,70.053L10.703,22.907C10.703,19.598 13.152,16.912 16.168,16.912C19.185,16.912 21.634,19.598 21.634,22.907Z" style="fill:rgb(0, 255, 255);"/>
    </g>
    <g transform="matrix(0.757579,-0.836015,0.399956,0.362432,48.4648,64.7485)">
        <path d="M21.634,28.336L21.634,64.625C21.634,70.93 19.185,76.049 16.168,76.049C13.152,76.049 10.703,70.93 10.703,64.625L10.703,28.336C10.703,22.031 13.152,16.912 16.168,16.912C19.185,16.912 21.634,22.031 21.634,28.336Z" style="fill:rgb(0, 255, 255);"/>
    </g>
    <g transform="matrix(1,0,0,1,-4.5946,1.10251)">
        <path d="M78.561,78.122C74.319,80.161 69.567,81.304 64.55,81.304C46.664,81.304 32.144,66.783 32.144,48.897C32.144,31.012 46.664,16.491 64.55,16.491C82.435,16.491 96.956,31.012 96.956,48.897C96.956,53.092 96.157,57.102 94.704,60.782L85.022,52.009C85.175,50.994 85.255,49.955 85.255,48.897C85.255,37.47 75.977,28.193 64.55,28.193C53.122,28.193 43.845,37.47 43.845,48.897C43.845,60.325 53.122,69.602 64.55,69.602C65.971,69.602 67.358,69.459 68.699,69.186L78.561,78.122Z" style="fill:rgb(0, 255, 255);"/>
    </g>
</svg>
