<?xml version="1.0" encoding="UTF-8" standalone="no"?><!DOCTYPE svg PUBLIC "-//W3C//DTD SVG 1.1//EN" "http://www.w3.org/Graphics/SVG/1.1/DTD/svg11.dtd"><svg width="6%" height="6%" viewBox="0 0 100 100" version="1.1" xmlns="http://www.w3.org/2000/svg" xmlns:xlink="http://www.w3.org/1999/xlink" xml:space="preserve" xmlns:serif="http://www.serif.com/" style="fill-rule:evenodd;clip-rule:evenodd;stroke-linejoin:round;stroke-miterlimit:2;"><path id="path1-2" d="M70.971,98.631c3.51,-1.634 6.193,-4.446 7.834,-8.216c3.129,-7.193 1.935,-9.118 -6.322,-10.185c-3.181,-0.414 -7.086,-1.45 -9.794,-2.604c-5.847,-2.491 -7.378,-2.479 -8.931,0.073c-2.907,4.783 -1.94,13.302 2.024,17.817c4.014,4.572 9.603,5.717 15.189,3.115Zm9.788,-24.47c2.27,-1.287 8.54,-10.471 10.052,-14.723c1.904,-5.362 2.729,-14.18 1.871,-20.055c-1.311,-8.992 -4.575,-14.016 -10.202,-15.702c-8.614,-2.581 -19.465,7.923 -24.33,23.552c-1.207,3.874 -1.315,5.197 -0.937,11.412c0.459,7.55 1.341,10.208 4.033,12.167c4.546,3.304 16.095,5.286 19.513,3.349Z" style="fill:rgb(0, 255, 255);"/><path id="path2-4" d="M39.032,76.055c7.531,-2.774 11.44,-14.491 7.173,-21.509c-1.546,-2.542 -2.876,-2.549 -9.148,-0.037c-2.687,1.076 -6.975,2.216 -9.53,2.533c-7.597,0.943 -8.878,2.277 -7.322,7.625c2.585,8.898 11.287,14.163 18.827,11.388Zm-8.449,-25.125c4.757,-1.268 8.78,-3.382 10.225,-5.374c0.899,-1.237 1.377,-3.446 1.831,-8.446c0.735,-8.11 0.092,-12.126 -3.023,-18.874c-5.14,-11.135 -12.656,-18.278 -19.182,-18.236c-2.573,0.017 -6.629,1.855 -8.439,3.822c-5.184,5.641 -6.646,21.37 -2.982,32.122c1.386,4.068 8.195,13.952 10.395,15.09c2.173,1.124 6.717,1.081 11.175,-0.104Z" style="fill:rgb(0, 255, 255);"/></svg>