<?xml version="1.0" encoding="UTF-8" standalone="no"?><!DOCTYPE svg PUBLIC "-//W3C//DTD SVG 1.1//EN" "http://www.w3.org/Graphics/SVG/1.1/DTD/svg11.dtd"><svg width="6%" height="6%" viewBox="0 0 100 100" version="1.1" xmlns="http://www.w3.org/2000/svg" xmlns:xlink="http://www.w3.org/1999/xlink" xml:space="preserve" xmlns:serif="http://www.serif.com/" style="fill-rule:evenodd;clip-rule:evenodd;stroke-linejoin:round;stroke-miterlimit:2;"><path id="path207" d="M14.216,98.797c-3.173,-1.496 -5.788,-5.015 -6.909,-9.299c-1.391,-5.314 1.548,-13.18 5.189,-13.886c2.3,-0.446 3.529,-0.238 15.856,2.693c5.484,1.303 10.167,2.174 10.407,1.934c0.351,-0.351 -6.263,-21.535 -7.043,-22.555c-0.12,-0.158 -1.049,0.507 -2.064,1.479c-2.141,2.05 -13.199,7.436 -17.769,8.654c-3.877,1.033 -5.843,0.016 -7.194,-3.724c-0.784,-2.171 -0.756,-2.7 0.221,-4.191c0.615,-0.938 2.079,-2.101 3.254,-2.584c13.289,-5.465 12.726,-5.133 18.474,-10.891c9.779,-9.795 14.895,-12.515 23.741,-12.625c8.181,-0.101 12.132,1.953 21.636,11.25c6.328,6.19 7.796,7.271 12.457,9.183c11.65,4.776 12.177,5.249 10.922,9.794c-0.68,2.463 -2.783,4.379 -4.803,4.379c-2.407,0 -13.589,-4.798 -17.914,-7.687l-4.407,-2.943l-3.554,10.534c-1.955,5.793 -3.559,10.761 -3.566,11.039c-0.023,0.927 2.283,0.516 10.425,-1.86c4.444,-1.296 9.832,-2.551 11.973,-2.788c3.494,-0.386 4.072,-0.265 5.642,1.183c5.316,4.901 4.637,16.751 -1.202,21.001c-3.053,2.222 -8.956,3.151 -19.78,3.112c-12.691,-0.047 -14.353,-0.548 -8.402,-2.532c5.55,-1.851 8.562,-3.692 9.536,-5.829c0.423,-0.928 0.634,-1.822 0.469,-1.987c-0.596,-0.596 -11.827,2.248 -16.988,4.302c-9.607,3.822 -17.434,5.519 -27.036,5.86c-7.713,0.274 -9.088,0.153 -11.571,-1.016Zm31.355,-66.913c-6.955,-1.932 -11.678,-8.248 -11.661,-15.595c0.022,-10.157 9.289,-17.982 18.915,-15.973c7.098,1.482 11.692,6.059 13.094,13.043c2.356,11.729 -8.671,21.767 -20.348,18.525Z" style="fill:rgb(0, 255, 255);"/></svg>