<?xml version="1.0" encoding="UTF-8" standalone="no"?><!DOCTYPE svg PUBLIC "-//W3C//DTD SVG 1.1//EN" "http://www.w3.org/Graphics/SVG/1.1/DTD/svg11.dtd"><svg width="6%" height="6%" viewBox="0 0 100 100" version="1.1" xmlns="http://www.w3.org/2000/svg" xmlns:xlink="http://www.w3.org/1999/xlink" xml:space="preserve" xmlns:serif="http://www.serif.com/" style="fill-rule:evenodd;clip-rule:evenodd;stroke-linejoin:round;stroke-miterlimit:2;"><path id="path1-4" d="M48.436,98.715c-0.662,-0.707 -2.279,-2.945 -3.592,-4.974c-4.437,-6.849 -9.214,-8.177 -17.327,-4.821c-7.229,2.991 -7.894,2.548 -7.453,-4.974c0.343,-5.833 -0.063,-8.081 -1.911,-10.585c-1.866,-2.529 -4.496,-3.998 -9.215,-5.147c-5.139,-1.251 -5.81,-1.555 -6.21,-2.816c-0.355,-1.118 0.404,-2.409 3.564,-6.057c5.587,-6.452 5.587,-12.23 -0,-18.682c-3.16,-3.648 -3.919,-4.939 -3.564,-6.057c0.4,-1.261 1.071,-1.565 6.21,-2.816c4.719,-1.149 7.349,-2.618 9.215,-5.147c1.848,-2.504 2.254,-4.752 1.911,-10.585c-0.441,-7.522 0.224,-7.965 7.453,-4.974c8.113,3.356 12.89,2.028 17.327,-4.821c2.615,-4.037 4.504,-6.259 5.321,-6.259c0.817,0 2.705,2.222 5.32,6.259c4.451,6.868 9.412,8.209 17.687,4.779c6.892,-2.857 7.133,-2.646 7.133,6.239c-0,6.294 0.02,6.419 1.418,8.69c1.814,2.945 4.965,4.864 9.836,5.987c6.968,1.607 7.346,2.739 2.757,8.242c-3.667,4.395 -4.432,6.089 -4.432,9.804c-0,3.715 0.765,5.409 4.432,9.804c4.589,5.503 4.211,6.635 -2.757,8.242c-4.871,1.123 -8.022,3.042 -9.836,5.987c-1.398,2.271 -1.418,2.396 -1.418,8.69c-0,8.885 -0.241,9.096 -7.133,6.239c-5.562,-2.306 -9.094,-2.399 -12.754,-0.34c-2.055,1.156 -3.002,2.139 -4.933,5.119c-2.615,4.037 -4.503,6.259 -5.32,6.259c-0.29,0 -1.068,-0.578 -1.729,-1.285Zm-4.813,-19.504c4.544,1.022 11.501,0.648 15.811,-0.85c9.205,-3.202 16.091,-10.118 19.068,-19.149c1.08,-3.275 1.265,-4.627 1.265,-9.212c0,-4.585 -0.185,-5.937 -1.265,-9.212c-3.864,-11.725 -14.421,-19.863 -26.659,-20.549c-19.679,-1.103 -34.934,16.713 -30.884,36.069c2.298,10.984 11.637,20.421 22.664,22.903Z" style="fill:rgb(0, 255, 255);"/></svg>